<svg width="40" height="40" viewBox="0 0 40 40" fill="none" xmlns="http://www.w3.org/2000/svg">
<g clip-path="url(#clip0_1_769)">
<path d="M20 40C31.0457 40 40 31.0457 40 20C40 8.95431 31.0457 0 20 0C8.95431 0 0 8.95431 0 20C0 31.0457 8.95431 40 20 40Z" fill="#01AFF1"/>
<path fill-rule="evenodd" clip-rule="evenodd" d="M18.6899 9.51958C15.2809 9.94185 12.1787 12.1387 10.6282 15.2286C9.52233 17.4326 9.20751 19.7775 9.69847 22.1544C9.97769 23.5063 10.7295 25.1753 11.5486 26.2621C15.0998 30.9732 21.6411 31.9188 26.379 28.406C28.3456 26.9477 29.8621 24.5687 30.3593 22.1614C31.0292 18.9185 30.1342 15.5084 27.9693 13.0542C26.4262 11.305 24.3597 10.1101 22.0816 9.64966C21.2898 9.48961 19.4894 9.42058 18.6899 9.51958ZM18.6175 14.7253C17.5507 15.0667 16.6357 15.8442 16.1875 16.7899C15.8932 17.411 15.7991 17.8664 15.7991 18.6686C15.7991 19.2271 15.7809 19.3032 15.5442 19.7338L15.2893 20.1975L15.3237 21.2556C15.3507 22.0869 15.3896 22.401 15.5049 22.7209C15.9259 23.8889 16.6652 24.7538 17.6578 25.2395C18.4985 25.6511 18.9055 25.7334 20.1001 25.7334C21.2777 25.7334 21.6987 25.6508 22.4975 25.263C22.8934 25.0708 23.1698 24.8629 23.5978 24.4356C24.5365 23.4983 24.8947 22.5373 24.8947 20.9561C24.8947 20.2424 24.8845 20.1915 24.6583 19.7801C24.4369 19.377 24.4195 19.2966 24.3845 18.505C24.3429 17.5634 24.1826 17.0039 23.7711 16.3627C23.2872 15.6086 22.3466 14.9287 21.4721 14.7009C20.8672 14.5433 19.1399 14.5581 18.6175 14.7253ZM21.3074 16.4741C21.7723 16.6848 22.1807 17.0815 22.4054 17.5407C22.5671 17.8711 22.604 18.0527 22.6272 18.6272L22.6549 19.317H20.1083H17.5618V18.7258C17.5618 17.9522 17.7114 17.4974 18.1126 17.0512C18.6592 16.4433 19.1199 16.2794 20.2059 16.3068C20.8126 16.3221 21.0524 16.3585 21.3074 16.4741ZM20.9041 21.105C21.2726 21.3861 21.3904 21.6568 21.3554 22.1418C21.3215 22.6095 21.0905 22.9772 20.7391 23.1228L20.5232 23.2122V23.8241C20.5232 24.507 20.4732 24.6052 20.1253 24.6052C19.787 24.6052 19.6771 24.4024 19.6771 23.7775V23.2632L19.3672 22.9647C18.8244 22.4423 18.7762 21.8301 19.2347 21.2852C19.4985 20.9717 19.7803 20.8618 20.2519 20.8888C20.5553 20.9061 20.7111 20.9577 20.9041 21.105Z" fill="white"/>
</g>
<defs>
<clipPath id="clip0_1_769">
<rect width="40" height="40" fill="white"/>
</clipPath>
</defs>
</svg>
