<svg width="40" height="40" viewBox="0 0 40 40" fill="none" xmlns="http://www.w3.org/2000/svg">
<g clip-path="url(#clip0_1_766)">
<path d="M20 40C31.0457 40 40 31.0457 40 20C40 8.95431 31.0457 0 20 0C8.95431 0 0 8.95431 0 20C0 31.0457 8.95431 40 20 40Z" fill="#4267B2"/>
<path fill-rule="evenodd" clip-rule="evenodd" d="M19.0643 9.52056C14.6175 9.94596 10.8833 13.1437 9.80002 17.4537C8.46129 22.7803 11.3473 28.1853 16.5205 30.0406C16.9167 30.1827 17.8641 30.4333 18.2681 30.5031L18.4025 30.5263V26.8255V23.1247H17.0583H15.714V21.5944V20.0641H17.0583H18.4025V18.5805C18.4025 16.9376 18.4291 16.6676 18.6539 16.0264C19.0964 14.7637 20.0233 13.9706 21.3805 13.6929C21.77 13.6132 21.9085 13.6061 22.7247 13.6235C23.4851 13.6398 24.5176 13.7304 24.7204 13.7986C24.7603 13.8119 24.7721 14.1124 24.7721 15.1137V16.4116L23.8932 16.4357C22.8075 16.4654 22.584 16.5201 22.2325 16.8413C21.7859 17.2494 21.7134 17.5704 21.7121 19.1437L21.7114 20.0641H23.1797C24.4694 20.0641 24.648 20.0717 24.648 20.1272C24.648 20.1956 24.2488 22.8234 24.21 23.011L24.1864 23.1247H22.949H21.7114V26.8255V30.5263L21.8458 30.5031C21.9198 30.4904 22.2407 30.4177 22.5593 30.3418C24.4483 29.8914 26.1439 28.9388 27.5378 27.5449C31.6762 23.4065 31.6768 16.7194 27.5392 12.5817C25.3122 10.3548 22.178 9.22267 19.0643 9.52056Z" fill="white"/>
</g>
<defs>
<clipPath id="clip0_1_766">
<rect width="40" height="40" fill="white"/>
</clipPath>
</defs>
</svg>
