<svg width="40" height="40" viewBox="0 0 40 40" fill="none" xmlns="http://www.w3.org/2000/svg">
<g clip-path="url(#clip0_1_754)">
<path d="M20 40C31.0457 40 40 31.0457 40 20C40 8.95431 31.0457 0 20 0C8.95431 0 0 8.95431 0 20C0 31.0457 8.95431 40 20 40Z" fill="#F14B54"/>
<path fill-rule="evenodd" clip-rule="evenodd" d="M9.47368 19.9999V30.5263H11.4375H13.4013V19.9999V9.47363H11.4375H9.47368V19.9999ZM23.3926 9.48699C21.3136 9.62545 19.5566 10.3944 18.132 11.7895C17.018 12.8805 16.2556 14.2403 15.9422 15.6953C15.8107 16.3053 15.7853 16.549 15.7774 17.2671C15.7695 17.9855 15.7804 18.1513 15.8709 18.6854C16.0983 20.0258 16.654 21.2296 17.5567 22.3378C17.8227 22.6644 18.4288 23.2527 18.7825 23.5276C19.2669 23.9042 19.8144 24.2407 20.3422 24.4861C22.6843 25.5754 25.4222 25.5033 27.6705 24.2933C29.9245 23.0802 31.4282 20.9336 31.7888 18.4143C31.8397 18.0593 31.8598 17.0594 31.8239 16.6748C31.6808 15.1421 31.1081 13.7244 30.1323 12.4875C29.8678 12.1523 29.1081 11.4086 28.7673 11.1513C27.5529 10.2345 26.2168 9.69702 24.7363 9.52973C24.4407 9.49633 23.6364 9.47075 23.3926 9.48699Z" fill="white"/>
</g>
<defs>
<clipPath id="clip0_1_754">
<rect width="40" height="40" fill="white"/>
</clipPath>
</defs>
</svg>
