<svg width="40" height="40" viewBox="0 0 40 40" fill="none" xmlns="http://www.w3.org/2000/svg">
<g clip-path="url(#clip0_1_772)">
<path d="M20 40C31.0457 40 40 31.0457 40 20C40 8.95431 31.0457 0 20 0C8.95431 0 0 8.95431 0 20C0 31.0457 8.95431 40 20 40Z" fill="#009771"/>
<path fill-rule="evenodd" clip-rule="evenodd" d="M17.6715 8.24628C15.9277 8.62725 14.3824 10.3781 13.4886 12.9855L13.1812 13.8826L11.8058 14.3047C11.0493 14.5369 10.3574 14.7981 10.2683 14.8852C10.1306 15.0197 9.34861 20.2657 8.18869 28.8367C8.12658 29.2953 8.14182 29.3371 8.39137 29.3913C8.88091 29.4977 22.5345 31.8612 22.5485 31.8421C22.6048 31.7646 23.5184 11.0639 23.4676 11.0166C23.4316 10.9833 23.2491 11.0055 23.0619 11.0661C22.7246 11.1751 22.7191 11.1706 22.3927 10.5235C21.8716 9.4902 21.0589 8.86977 20.2271 8.86977C20.0362 8.86977 19.8096 8.77574 19.6832 8.64414C19.2387 8.18138 18.5719 8.04946 17.6715 8.24628ZM18.8409 9.07377C18.8409 9.1279 18.7444 9.20051 18.6266 9.23523C18.2498 9.34625 17.2529 10.4252 16.9154 11.0874C16.7357 11.4401 16.5007 12.0299 16.3934 12.3982L16.1979 13.0677L15.3299 13.3054C14.8525 13.4362 14.3969 13.5655 14.3175 13.593C14.1249 13.6596 14.6443 12.3141 15.1785 11.3626C15.9752 9.94346 17.262 8.9753 18.3514 8.9753C18.6206 8.9753 18.8409 9.01963 18.8409 9.07377ZM21.0869 10.057C21.2834 10.2457 21.5477 10.6137 21.6744 10.8749L21.9048 11.3499L21.5831 11.4761C21.406 11.5454 21.1336 11.632 20.9776 11.6683C20.7017 11.7325 20.6917 11.715 20.6169 11.0377C20.5746 10.6546 20.5096 10.2 20.4724 10.0276C20.3807 9.60196 20.6254 9.61367 21.0869 10.057ZM19.6236 10.2885C19.6937 10.5463 19.7508 11.0412 19.7508 11.3883V12.0194L18.6241 12.3442C17.2657 12.7357 17.2108 12.7393 17.3087 12.4315C17.4641 11.943 17.9274 11.0763 18.2298 10.7084C18.5148 10.3616 19.2423 9.81957 19.4225 9.81957C19.4631 9.81957 19.5536 10.0305 19.6236 10.2885ZM23.8455 11.2352C23.8455 11.4014 23.6387 15.9355 23.3861 21.311C23.1334 26.6865 22.9415 31.2533 22.9596 31.4596L22.9924 31.8348L26.7392 31.0825C28.7998 30.6689 30.5039 30.2803 30.5259 30.219C30.5633 30.1151 27.8694 12.9645 27.776 12.7116C27.7515 12.6452 27.2559 12.565 26.6139 12.5234L25.4947 12.4509L24.6701 11.692C23.8773 10.9622 23.8455 10.9446 23.8455 11.2352ZM19.2619 16.3661C19.562 16.426 19.8668 16.5091 19.9392 16.5508C20.1279 16.6596 19.1481 19.2782 18.9371 19.2295C18.8528 19.2102 18.4786 19.1217 18.1054 19.0328C17.2985 18.841 16.4134 18.9086 15.9991 19.1937C15.8417 19.302 15.6665 19.5608 15.6096 19.769C15.4754 20.2599 15.6661 20.5355 16.5959 21.1949C17.8291 22.0693 18.2633 22.4935 18.6275 23.1799C18.9348 23.7594 18.982 23.9594 18.9782 24.6702C18.9705 26.125 18.3051 27.2964 17.1422 27.9026C16.6172 28.1763 16.3757 28.2313 15.5387 28.2685C14.1131 28.3317 12.9507 27.9819 11.9241 27.1804L11.5844 26.915L11.9141 25.8957C12.0956 25.3352 12.244 24.8582 12.244 24.8358C12.244 24.8134 12.4823 24.9472 12.7736 25.1332C13.4023 25.5345 14.2802 25.8606 14.7322 25.8606C15.4362 25.8606 15.9728 25.0534 15.6542 24.4734C15.5791 24.3367 15.018 23.7737 14.4072 23.2223C13.0615 22.0073 12.8585 21.5913 12.9575 20.251C13.0988 18.3375 14.4522 16.8908 16.5403 16.4212C17.3324 16.2431 18.5245 16.2189 19.2619 16.3661Z" fill="white"/>
</g>
<defs>
<clipPath id="clip0_1_772">
<rect width="40" height="40" fill="white"/>
</clipPath>
</defs>
</svg>
