<svg width="40" height="40" viewBox="0 0 40 40" fill="none" xmlns="http://www.w3.org/2000/svg">
<g clip-path="url(#clip0_1_760)">
<path d="M20 40C31.0457 40 40 31.0457 40 20C40 8.95431 31.0457 0 20 0C8.95431 0 0 8.95431 0 20C0 31.0457 8.95431 40 20 40Z" fill="#9047FF"/>
<path fill-rule="evenodd" clip-rule="evenodd" d="M29.4298 9.47366H13.0114C12.8318 9.47232 12.6546 9.51611 12.4963 9.60101C12.338 9.68593 12.2036 9.80923 12.1053 9.95963L9.69297 13.3026C9.54925 13.5409 9.47342 13.8138 9.47368 14.0921V25.0447C9.47437 25.3352 9.59015 25.6136 9.79566 25.819C10.0012 26.0244 10.2797 26.1398 10.5702 26.1404H13.421C13.5374 26.1404 13.6489 26.1866 13.7312 26.2688C13.8135 26.351 13.8597 26.4626 13.8597 26.5789V29.6491C13.8597 29.8817 13.9521 30.1049 14.1165 30.2694C14.281 30.4338 14.5042 30.5263 14.7368 30.5263H16.585C16.739 30.5263 16.8903 30.4857 17.0237 30.4088C17.157 30.3317 17.2678 30.221 17.3447 30.0877L19.4913 26.3631C19.5297 26.2965 19.585 26.2411 19.6518 26.2026C19.7184 26.1642 19.7941 26.1438 19.871 26.1438H25.557C25.7586 26.1444 25.9584 26.1049 26.1447 26.0276C26.3309 25.9505 26.5 25.837 26.6421 25.6938L30.0755 22.2605C30.3635 21.9713 30.5256 21.5801 30.5263 21.1719V10.571C30.5263 10.2801 30.4108 10.0012 30.2053 9.79538C29.9996 9.58961 29.7207 9.47389 29.4298 9.47366ZM27.8947 20.5141C27.8947 20.7467 27.8022 20.9697 27.6377 21.1342L25.5202 23.2526C25.3557 23.4171 25.1326 23.5095 24.9 23.5096H18.9123C18.8419 23.5097 18.7725 23.5267 18.7101 23.5592C18.6476 23.5917 18.5939 23.6388 18.5535 23.6965L17.2807 25.5175C17.2283 25.5941 17.1528 25.6518 17.0652 25.6822C16.9775 25.7125 16.8824 25.7138 16.7939 25.6861C16.7055 25.6583 16.6283 25.6027 16.5738 25.5276C16.5193 25.4526 16.4903 25.3621 16.4913 25.2693V23.9473C16.4913 23.831 16.445 23.7194 16.3627 23.6372C16.2805 23.555 16.1689 23.5088 16.0526 23.5088H14.2982C14.1819 23.5088 14.0703 23.4626 13.9881 23.3803C13.9059 23.2981 13.8597 23.1865 13.8597 23.0702V12.5438C13.8597 12.4275 13.9059 12.3159 13.9881 12.2337C14.0703 12.1514 14.1819 12.1052 14.2982 12.1052H27.4561C27.5724 12.1052 27.684 12.1514 27.7663 12.2337C27.8485 12.3159 27.8947 12.4275 27.8947 12.5438V20.5141ZM19.1223 14.9567C18.9479 14.9567 18.7805 15.0261 18.6572 15.1494C18.5338 15.2728 18.4644 15.4402 18.4644 15.6146V19.1234C18.4644 19.2978 18.5338 19.4652 18.6572 19.5886C18.7805 19.7119 18.9479 19.7813 19.1223 19.7813C19.2968 19.7813 19.4642 19.7119 19.5876 19.5886C19.7109 19.4652 19.7802 19.2978 19.7802 19.1234V15.6137C19.78 15.4394 19.7106 15.2723 19.5873 15.1491C19.4639 15.0259 19.2967 14.9567 19.1223 14.9567ZM23.044 15.1494C23.1674 15.0261 23.3347 14.9567 23.5092 14.9567C23.6835 14.9567 23.8507 15.0259 23.9741 15.1491C24.0975 15.2723 24.1668 15.4394 24.167 15.6137V19.1234C24.167 19.2978 24.0978 19.4652 23.9744 19.5886C23.851 19.7119 23.6837 19.7813 23.5092 19.7813C23.3347 19.7813 23.1674 19.7119 23.044 19.5886C22.9206 19.4652 22.8513 19.2978 22.8513 19.1234V15.6146C22.8513 15.4402 22.9206 15.2728 23.044 15.1494Z" fill="white"/>
</g>
<defs>
<clipPath id="clip0_1_760">
<rect width="40" height="40" fill="white"/>
</clipPath>
</defs>
</svg>
