<svg width="40" height="40" viewBox="0 0 40 40" fill="none" xmlns="http://www.w3.org/2000/svg">
<g clip-path="url(#clip0_1_778)">
<path d="M20 40C31.0457 40 40 31.0457 40 20C40 8.95431 31.0457 0 20 0C8.95431 0 0 8.95431 0 20C0 31.0457 8.95431 40 20 40Z" fill="#635BFF"/>
<path fill-rule="evenodd" clip-rule="evenodd" d="M18.5085 15.7431C18.5085 14.8409 19.2484 14.4938 20.4741 14.4938C22.2316 14.4938 24.4516 15.0259 26.2091 15.9745V10.5378C24.2897 9.77438 22.3935 9.47363 20.4741 9.47363C15.7798 9.47363 12.6579 11.9259 12.6579 16.0208C12.6579 22.4059 21.4454 21.3881 21.4454 24.1411C21.4454 25.2053 20.5203 25.5523 19.2254 25.5523C17.306 25.5523 14.8547 24.7657 12.9123 23.7015V29.2076C15.0628 30.133 17.2366 30.5263 19.2254 30.5263C24.0353 30.5263 27.3421 28.1434 27.3421 24.0023C27.3191 17.1081 18.5085 18.3343 18.5085 15.7431Z" fill="white"/>
</g>
<defs>
<clipPath id="clip0_1_778">
<rect width="40" height="40" fill="white"/>
</clipPath>
</defs>
</svg>
