<svg width="40" height="40" viewBox="0 0 40 40" fill="none" xmlns="http://www.w3.org/2000/svg">
<g clip-path="url(#clip0_1_784)">
<path d="M20 40C31.0457 40 40 31.0457 40 20C40 8.95431 31.0457 0 20 0C8.95431 0 0 8.95431 0 20C0 31.0457 8.95431 40 20 40Z" fill="#282828"/>
<path d="M32.643 13.5284C32.3546 12.4576 31.5103 11.6132 30.4395 11.3249C28.4832 10.7896 20.6579 10.7896 20.6579 10.7896C20.6579 10.7896 12.8325 10.7896 10.8762 11.3044C9.82593 11.5927 8.96102 12.4576 8.67272 13.5284C8.1579 15.4847 8.1579 19.5416 8.1579 19.5416C8.1579 19.5416 8.1579 23.619 8.67272 25.5547C8.96102 26.6256 9.80534 27.4699 10.8762 27.7582C12.8531 28.2936 20.6579 28.2936 20.6579 28.2936C20.6579 28.2936 28.4832 28.2936 30.4395 27.7788C31.5103 27.4905 32.3546 26.6462 32.643 25.5753C33.1578 23.619 33.1578 19.5622 33.1578 19.5622C33.1578 19.5622 33.1784 15.4847 32.643 13.5284Z" fill="white"/>
<path d="M24.6739 19.5405L18.1665 15.7925V23.2884L24.6739 19.5405Z" fill="#191919"/>
</g>
<defs>
<clipPath id="clip0_1_784">
<rect width="40" height="40" fill="white"/>
</clipPath>
</defs>
</svg>
