<svg width="24" height="24" viewBox="0 0 24 24" fill="none" xmlns="http://www.w3.org/2000/svg">
<g clip-path="url(#clip0_1_516)">
<path d="M12 24C18.6274 24 24 18.6274 24 12C24 5.37258 18.6274 0 12 0C5.37258 0 0 5.37258 0 12C0 18.6274 5.37258 24 12 24Z" fill="#01AFF1"/>
<path fill-rule="evenodd" clip-rule="evenodd" d="M11.2139 5.71177C9.1685 5.96514 7.30724 7.28324 6.37692 9.13717C5.71339 10.4596 5.52449 11.8665 5.81907 13.2926C5.9866 14.1038 6.43768 15.1052 6.92917 15.7573C9.05987 18.584 12.9846 19.1513 15.8274 17.0436C17.0073 16.1687 17.9173 14.7412 18.2156 13.2969C18.6175 11.3511 18.0805 9.30505 16.7816 7.83252C15.8557 6.78302 14.6158 6.06608 13.2489 5.78982C12.7739 5.69379 11.6936 5.65237 11.2139 5.71177ZM11.1705 8.83522C10.5304 9.04004 9.98141 9.50652 9.71248 10.074C9.53589 10.4466 9.47943 10.7198 9.47943 11.2012C9.47943 11.5363 9.4685 11.582 9.32652 11.8403L9.17355 12.1185L9.19421 12.7534C9.21044 13.2522 9.23374 13.4406 9.3029 13.6326C9.55553 14.3334 9.99909 14.8523 10.5947 15.1437C11.0991 15.3907 11.3433 15.4401 12.0601 15.4401C12.7666 15.4401 13.0192 15.3905 13.4985 15.1578C13.736 15.0425 13.9019 14.9178 14.1587 14.6614C14.7219 14.099 14.9368 13.5224 14.9368 12.5737C14.9368 12.1454 14.9307 12.1149 14.795 11.8681C14.6621 11.6262 14.6517 11.578 14.6307 11.103C14.6057 10.5381 14.5096 10.2024 14.2626 9.81764C13.9723 9.36517 13.408 8.95724 12.8833 8.82056C12.5203 8.72602 11.4839 8.73486 11.1705 8.83522ZM12.7844 9.88446C13.0634 10.0109 13.3084 10.2489 13.4432 10.5244C13.5402 10.7227 13.5624 10.8316 13.5763 11.1764L13.5929 11.5902H12.065H10.5371V11.2355C10.5371 10.7713 10.6268 10.4985 10.8676 10.2308C11.1955 9.86601 11.4719 9.76768 12.1235 9.7841C12.4876 9.79326 12.6314 9.81511 12.7844 9.88446ZM12.5425 12.663C12.7636 12.8317 12.8342 12.9941 12.8132 13.2851C12.7929 13.5657 12.6543 13.7864 12.4434 13.8737L12.3139 13.9273V14.2945C12.3139 14.7042 12.2839 14.7632 12.0752 14.7632C11.8722 14.7632 11.8062 14.6414 11.8062 14.2665V13.958L11.6203 13.7788C11.2946 13.4654 11.2657 13.0981 11.5408 12.7712C11.6991 12.5831 11.8682 12.5171 12.1511 12.5333C12.3332 12.5437 12.4266 12.5747 12.5425 12.663Z" fill="white"/>
</g>
<defs>
<clipPath id="clip0_1_516">
<rect width="24" height="24" fill="white"/>
</clipPath>
</defs>
</svg>
