<svg width="40" height="40" viewBox="0 0 40 40" fill="none" xmlns="http://www.w3.org/2000/svg">
<rect width="40" height="40" rx="20" fill="#6EE4B5"/>
<path opacity="0.2" d="M14.1111 11C11.6667 11 11 11.6667 11 14.1111V25.8889C11 28.3333 11.6667 29 14.1111 29H15.8889C18.3333 29 19 28.3333 19 25.8889V14.1111C19 11.6667 18.3333 11 15.8889 11H14.1111Z" fill="white"/>
<path fill-rule="evenodd" clip-rule="evenodd" d="M14.1111 11C11.6667 11 11 11.6667 11 14.1111V25.8889C11 28.3333 11.6667 29 14.1111 29H15.8889C18.3333 29 19 28.3333 19 25.8889V14.1111C19 11.6667 18.3333 11 15.8889 11H14.1111ZM13 14.1111C13 13.5769 13.0382 13.2623 13.0819 13.0819C13.2623 13.0382 13.5769 13 14.1111 13H15.8889C16.4231 13 16.7377 13.0382 16.9181 13.0819C16.9618 13.2623 17 13.5769 17 14.1111V25.8889C17 26.4231 16.9618 26.7377 16.9181 26.9181C16.7377 26.9618 16.4231 27 15.8889 27H14.1111C13.5769 27 13.2623 26.9618 13.0819 26.9181C13.0382 26.7377 13 26.4231 13 25.8889V14.1111Z" fill="white"/>
<path d="M21 15.8889C21 18.3333 21.6667 19 24.1111 19H25.8889C28.3333 19 29 18.3333 29 15.8889V14.1111C29 11.6667 28.3333 11 25.8889 11H24.1111C21.6667 11 21 11.6667 21 14.1111V15.8889Z" fill="white"/>
<path d="M21 25.8889C21 28.3333 21.6667 29 24.1111 29H25.8889C28.3333 29 29 28.3333 29 25.8889V24.1111C29 21.6667 28.3333 21 25.8889 21H24.1111C21.6667 21 21 21.6667 21 24.1111V25.8889Z" fill="white"/>
</svg>
