<svg width="40" height="40" viewBox="0 0 40 40" fill="none" xmlns="http://www.w3.org/2000/svg">
<rect width="40" height="40" rx="20" fill="#7352FF"/>
<path opacity="0.2" d="M12 20.5914V22C12 27.5 13.5 29 19 29H21C26.5 29 28 27.5 28 22V20.5914C25.8387 20.3168 22.7447 20 20 20C17.2553 20 14.1613 20.3168 12 20.5914Z" fill="white"/>
<path d="M17.6473 10.7113L9.48746 16.6458C9.1812 16.8685 9 17.2244 9 17.603C9 18.3344 9.65458 18.8945 10.3787 18.7917C12.4426 18.4986 16.4704 18.0003 20 18.0003C23.5296 18.0003 27.5574 18.4986 29.6213 18.7917C30.3454 18.8945 31 18.3344 31 17.603C31 17.2244 30.8188 16.8685 30.5125 16.6458L22.3527 10.7113C20.9501 9.69127 19.0499 9.69127 17.6473 10.7113Z" fill="white"/>
<path fill-rule="evenodd" clip-rule="evenodd" d="M12 22V20.5914C14.1613 20.3168 17.2553 20 20 20C22.7447 20 25.8387 20.3168 28 20.5914V22C28 27.5 26.5 29 21 29H19C13.5 29 12 27.5 12 22ZM20 22C21.9609 22 24.1336 22.1707 25.9973 22.3703C25.9614 24.8185 25.566 25.7306 25.1483 26.1482C24.7102 26.5863 23.7281 27 21 27H19C16.2719 27 15.2898 26.5863 14.8517 26.1482C14.434 25.7306 14.0386 24.8185 14.0027 22.3703C15.8664 22.1707 18.0391 22 20 22Z" fill="white"/>
</svg>
