<svg width="40" height="40" viewBox="0 0 40 40" fill="none" xmlns="http://www.w3.org/2000/svg">
<rect width="40" height="40" rx="20" fill="#A4B96D"/>
<path fill-rule="evenodd" clip-rule="evenodd" d="M19.9989 29.5015C25.2457 29.5015 29.4989 25.2482 29.4989 20.0015C29.4989 14.7548 25.2457 10.5015 19.9989 10.5015C14.7522 10.5015 10.4989 14.7548 10.4989 20.0015C10.4989 25.2482 14.7522 29.5015 19.9989 29.5015ZM16.4587 17.7442C16.4587 16.4822 17.4817 15.4591 18.7438 15.4591H19.4586V14.5005C19.4586 14.2014 19.7011 13.9589 20.0002 13.9589C20.2994 13.9589 20.5419 14.2014 20.5419 14.5005V15.4591H21.0003C22.4041 15.4591 23.542 16.597 23.542 18.0008C23.542 18.2999 23.2995 18.5424 23.0003 18.5424C22.7012 18.5424 22.4587 18.2999 22.4587 18.0008C22.4587 17.1953 21.8058 16.5424 21.0003 16.5424H20.5419V19.6103L21.9795 20.0895C22.9126 20.4005 23.542 21.2738 23.542 22.2573C23.542 23.5194 22.5189 24.5424 21.2569 24.5424H20.5419V25.5005C20.5419 25.7997 20.2994 26.0422 20.0002 26.0422C19.7011 26.0422 19.4586 25.7997 19.4586 25.5005V24.5424H19.0003C17.5966 24.5424 16.4587 23.4045 16.4587 22.0008C16.4587 21.7016 16.7012 21.4591 17.0003 21.4591C17.2995 21.4591 17.542 21.7016 17.542 22.0008C17.542 22.8062 18.1949 23.4591 19.0003 23.4591H19.4586V20.3911L18.0211 19.912C17.088 19.601 16.4587 18.7277 16.4587 17.7442ZM19.4586 19.2492V16.5424H18.7438C18.08 16.5424 17.542 17.0805 17.542 17.7442C17.542 18.2614 17.873 18.7207 18.3637 18.8842L19.4586 19.2492ZM20.5419 20.7522V23.4591H21.2569C21.9206 23.4591 22.4587 22.921 22.4587 22.2573C22.4587 21.7401 22.1277 21.2808 21.6369 21.1173L20.5419 20.7522Z" fill="white"/>
</svg>
